<svg width="24" height="24" viewBox="0 0 24 24" fill="none" xmlns="http://www.w3.org/2000/svg">
<path d="M22.432 13.941L20.932 18.454C20.516 19.7 19.253 23.5 15.174 23.5C14.0993 23.4743 13.0358 23.2761 12.024 22.913L7.51396 21.413C6.1019 21.0138 4.81723 20.2559 3.78496 19.213C3.50557 19.2466 3.22406 19.1702 2.99996 19C0.999964 17 0.962964 12.387 1.14596 11.219L1.88596 6.527C2.52896 2.47 4.54496 0.5 8.04696 0.5C8.68083 0.504024 9.31342 0.557519 9.93896 0.66L14.631 1.4C15.961 1.608 19.84 2.213 20.539 6.2L21.09 6.653C24.04 9.078 22.83 12.739 22.432 13.941Z" fill="white"/>
<path d="M14.4 2.881L9.71 2.141C5.8 1.531 3.99 2.851 3.37 6.761L2.63 11.451C2.23 14.011 2.65 15.671 4.1 16.681C5.05094 17.2877 6.12875 17.6675 7.25 17.791L11.94 18.531C15.85 19.141 17.66 17.821 18.28 13.911L19.01 9.22099C19.1282 8.53774 19.1718 7.84367 19.14 7.151C19.008 4.651 17.538 3.371 14.4 2.881ZM8.75 9.351C8.33127 9.35198 7.92167 9.22866 7.57309 8.99664C7.22452 8.76462 6.95266 8.43435 6.79196 8.04768C6.63126 7.66101 6.58895 7.23534 6.6704 6.82461C6.75185 6.41387 6.95339 6.03656 7.24948 5.74047C7.54556 5.44438 7.92288 5.24285 8.33362 5.1614C8.74435 5.07995 9.17002 5.12225 9.55669 5.28295C9.94336 5.44365 10.2736 5.71551 10.5056 6.06409C10.7377 6.41266 10.861 6.82226 10.86 7.241C10.8576 7.80022 10.6343 8.33583 10.2387 8.73108C9.84305 9.12632 9.30723 9.34915 8.748 9.351H8.75Z" fill="#2DD4BF"/>
<path d="M21.0079 13.471L19.5079 17.981C18.2579 21.741 16.2579 22.741 12.4979 21.491L7.98795 19.991C6.82329 19.6702 5.75975 19.0576 4.89795 18.211C5.60468 18.4813 6.33915 18.6724 7.08795 18.781L11.7879 19.521C12.3832 19.6174 12.985 19.6675 13.5879 19.671C16.8879 19.671 18.6579 17.891 19.2679 14.061L19.9999 9.37104C20.0914 8.85603 20.1382 8.33409 20.1399 7.81104C21.6579 9.06104 21.8779 10.841 21.0079 13.471Z" fill="#00A08C"/>
</svg>
